<?xml version="1.0" standalone="no"?>
<!DOCTYPE svg PUBLIC "-//W3C//DTD SVG 20010904//EN"
 "http://www.w3.org/TR/2001/REC-SVG-20010904/DTD/svg10.dtd">
<svg version="1.0" xmlns="http://www.w3.org/2000/svg"
 width="480.000000pt" height="600.000000pt" viewBox="0 0 480.000000 600.000000"
 preserveAspectRatio="xMidYMid meet">
<g transform="translate(0.000000,600.000000) scale(0.100000,-0.100000)"
fill="#000000" stroke="none">
<path d="M2134 5590 c-362 -32 -661 -124 -762 -234 -23 -25 -42 -54 -43 -63
-1 -10 -2 -164 -3 -343 -2 -359 -2 -361 61 -416 l35 -31 2 -115 c1 -135 13
-159 111 -218 400 -240 1546 -205 1795 55 l35 36 3 120 4 119 34 27 c68 52 70
60 68 418 -1 176 -3 330 -3 343 -4 109 -304 239 -666 287 -138 19 -535 28
-671 15z m498 -140 c101 -12 174 -34 204 -61 11 -10 28 -19 38 -19 11 0 14 -4
10 -12 -5 -8 -2 -9 10 -5 10 4 15 3 11 -3 -3 -5 5 -14 17 -21 13 -7 32 -22 43
-33 32 -35 136 -94 185 -106 84 -21 125 -28 132 -24 4 2 9 0 12 -5 11 -18 -69
-68 -146 -91 -42 -13 -75 -27 -72 -32 7 -11 44 -10 44 2 0 6 13 10 28 10 16 0
32 3 35 7 17 17 63 11 80 -10 10 -12 16 -16 12 -9 -8 16 5 15 28 -2 65 -49
-321 -163 -671 -197 -355 -35 -857 32 -1095 147 -37 18 -37 18 -15 31 13 7 34
12 47 13 l24 0 -26 20 c-14 11 -32 20 -41 20 -9 0 -16 5 -16 10 0 7 13 8 35 4
42 -8 45 0 8 20 -16 8 -39 24 -52 37 l-23 22 23 18 c13 10 20 19 14 19 -11 0
38 35 70 51 11 5 27 13 35 18 94 56 342 156 365 147 7 -2 15 0 17 6 2 6 22 13
44 14 21 2 71 7 109 12 98 13 373 14 477 2z m531 -40 c75 -29 114 -50 132 -71
40 -48 28 -93 -14 -55 -48 42 -186 98 -338 136 -28 7 -43 16 -43 27 0 31 140
11 263 -37z m-1646 -377 c-4 -3 -10 -3 -14 0 -3 4 0 7 7 7 7 0 10 -3 7 -7z
m1826 -102 c-12 -47 -288 -139 -524 -175 -447 -69 -968 -20 -1276 120 -40 18
-73 35 -73 38 0 40 2 40 201 -22 467 -146 1072 -134 1554 30 106 36 126 38
118 9z m12 -78 c-3 -37 -23 -53 -120 -92 -434 -173 -1087 -190 -1560 -40 -110
35 -215 83 -215 100 0 5 6 7 13 3 8 -5 8 -2 -2 9 -19 24 -1 23 69 -4 403 -154
1037 -186 1475 -74 112 29 302 90 325 105 8 5 15 10 16 10 0 0 0 -8 -1 -17z
m-1745 -153 c246 -82 470 -114 785 -115 342 0 559 34 843 132 103 36 125 37
106 5 -34 -55 -287 -141 -519 -176 -386 -58 -759 -40 -1100 55 -145 39 -259
95 -263 128 -3 20 -1 23 15 17 10 -4 70 -25 133 -46z m-100 -70 c10 -5 72 -26
137 -46 488 -148 1089 -142 1553 15 63 22 116 35 118 31 5 -15 -18 -50 -33
-50 -7 0 -15 -4 -17 -8 -1 -5 -34 -21 -72 -36 -413 -165 -1164 -166 -1583 -4
-46 18 -83 36 -83 40 0 4 -8 8 -17 9 -13 0 -14 2 -4 6 9 4 5 12 -15 29 -29 23
-19 33 16 14z m181 -165 c427 -122 956 -124 1401 -6 l146 39 -2 -25 c-3 -27
-63 -73 -95 -73 -12 0 -21 -3 -21 -8 0 -8 -66 -30 -130 -42 -61 -12 -118 -28
-102 -29 6 -1 12 -10 12 -20 0 -18 -51 -47 -74 -42 -4 1 -13 -2 -20 -7 -40
-32 -378 -54 -584 -39 -90 7 -165 10 -168 6 -2 -4 -32 -6 -66 -6 -35 0 -70 -2
-77 -4 -11 -3 -18 12 -26 57 -15 78 -17 80 -67 88 -113 17 -277 84 -263 107 4
5 1 16 -5 24 -19 22 0 20 141 -20z m1627 -95 c4 -38 -14 -63 -28 -40 -11 18
-13 64 -3 74 14 14 28 -1 31 -34z m-281 -37 c-4 -3 -7 0 -7 7 0 7 3 10 7 7 3
-4 3 -10 0 -14z m-80 -9 c-3 -3 -12 -4 -19 -1 -8 3 -5 6 6 6 11 1 17 -2 13 -5z
m50 0 c-3 -3 -12 -4 -19 -1 -8 3 -5 6 6 6 11 1 17 -2 13 -5z m-87 -9 c0 -3 -2
-5 -5 -5 -3 0 -5 2 -5 5 0 3 2 5 5 5 3 0 5 -2 5 -5z"/>
<path d="M2265 5413 c-284 -33 -405 -79 -405 -152 0 -149 717 -208 996 -81
149 67 110 144 -101 199 -123 33 -364 49 -490 34z"/>
<path d="M1635 5060 c4 -6 11 -8 16 -5 14 9 11 15 -7 15 -8 0 -12 -5 -9 -10z"/>
<path d="M2975 5023 l-60 -12 60 5 c33 3 62 8 64 10 10 10 -8 9 -64 -3z"/>
<path d="M3228 5023 c7 -3 16 -2 19 1 4 3 -2 6 -13 5 -11 0 -14 -3 -6 -6z"/>
<path d="M1625 5010 c3 -5 10 -10 16 -10 5 0 9 5 9 10 0 6 -7 10 -16 10 -8 0
-12 -4 -9 -10z"/>
<path d="M1820 5016 c0 -10 28 -13 41 -5 10 6 7 9 -13 9 -16 0 -28 -2 -28 -4z"/>
<path d="M1553 5003 c4 -3 10 -3 14 0 3 4 0 7 -7 7 -7 0 -10 -3 -7 -7z"/>
<path d="M1930 5000 c20 -13 33 -13 25 0 -3 6 -14 10 -23 10 -15 0 -15 -2 -2
-10z"/>
<path d="M2860 5000 c-24 -8 -24 -8 7 -9 17 -1 35 4 38 9 7 11 -9 11 -45 0z"/>
<path d="M1680 4995 c0 -3 2 -5 5 -5 3 0 5 2 5 5 0 3 -2 5 -5 5 -3 0 -5 -2 -5
-5z"/>
<path d="M2030 4985 c0 -3 2 -5 5 -5 3 0 5 2 5 5 0 3 -2 5 -5 5 -3 0 -5 -2 -5
-5z"/>
<path d="M1750 4975 c0 -3 2 -5 5 -5 3 0 5 2 5 5 0 3 -2 5 -5 5 -3 0 -5 -2 -5
-5z"/>
<path d="M2168 4973 c7 -3 16 -2 19 1 4 3 -2 6 -13 5 -11 0 -14 -3 -6 -6z"/>
<path d="M2568 4973 c6 -2 18 -2 25 0 6 3 1 5 -13 5 -14 0 -19 -2 -12 -5z"/>
<path d="M2618 4973 c7 -3 16 -2 19 1 4 3 -2 6 -13 5 -11 0 -14 -3 -6 -6z"/>
<path d="M1818 4953 c12 -2 22 -9 22 -14 0 -6 5 -7 11 -3 15 9 -9 24 -36 22
-17 -1 -17 -1 3 -5z"/>
<path d="M1923 4323 c4 -3 10 -3 14 0 3 4 0 7 -7 7 -7 0 -10 -3 -7 -7z"/>
<path d="M2003 4313 c4 -3 10 -3 14 0 3 4 0 7 -7 7 -7 0 -10 -3 -7 -7z"/>
<path d="M2083 4303 c4 -3 10 -3 14 0 3 4 0 7 -7 7 -7 0 -10 -3 -7 -7z"/>
<path d="M2128 4293 c12 -2 30 -2 40 0 9 3 -1 5 -23 4 -22 0 -30 -2 -17 -4z"/>
<path d="M2352 4289 c-29 -4 -55 -9 -57 -10 -6 -7 249 2 278 9 35 9 -151 9
-221 1z"/>
<path d="M2070 4285 c0 -3 2 -5 5 -5 3 0 5 2 5 5 0 3 -2 5 -5 5 -3 0 -5 -2 -5
-5z"/>
<path d="M2218 4273 c12 -2 30 -2 40 0 9 3 -1 5 -23 4 -22 0 -30 -2 -17 -4z"/>
<path d="M2635 4270 c-8 -13 55 -13 75 0 11 7 4 10 -27 10 -23 0 -45 -4 -48
-10z"/>
<path d="M2083 4263 c4 -3 10 -3 14 0 3 4 0 7 -7 7 -7 0 -10 -3 -7 -7z"/>
<path d="M2153 4243 c9 -2 23 -2 30 0 6 3 -1 5 -18 5 -16 0 -22 -2 -12 -5z"/>
<path d="M2338 4243 c12 -2 32 -2 45 0 12 2 2 4 -23 4 -25 0 -35 -2 -22 -4z"/>
<path d="M2578 4243 c12 -2 32 -2 45 0 12 2 2 4 -23 4 -25 0 -35 -2 -22 -4z"/>
<path d="M1600 3993 c-23 -139 -96 -220 -255 -284 -118 -47 -175 -81 -219
-130 l-36 -39 0 -1413 0 -1413 35 -41 c133 -156 680 -273 1274 -273 630 0
1187 127 1290 294 l21 33 0 1407 0 1406 -36 40 c-42 47 -114 90 -210 126 -172
64 -240 145 -270 319 l-7 40 -11 -33 c-6 -18 -18 -37 -25 -41 -28 -18 -27
-151 1 -213 26 -56 107 -147 133 -149 17 -2 24 -4 45 -12 8 -3 41 -11 73 -17
31 -6 55 -16 51 -21 -3 -5 -10 -6 -16 -3 -7 4 -8 2 -4 -5 5 -7 16 -9 28 -5 14
4 18 2 14 -5 -4 -6 1 -14 11 -18 10 -4 24 -13 31 -20 7 -7 21 -18 30 -25 59
-43 64 -72 60 -311 -1 -122 -2 -661 0 -1197 4 -1249 7 -1215 -104 -1288 -456
-302 -2120 -239 -2288 87 -17 32 -25 2588 -8 2646 5 18 29 46 59 70 29 22 52
46 52 53 1 9 8 11 23 7 17 -6 20 -4 15 9 -4 11 -3 15 4 10 6 -4 16 0 21 7 7
10 11 11 14 2 3 -7 12 -9 20 -6 7 3 11 9 8 14 -3 5 2 10 10 10 9 1 19 3 24 4
4 1 21 6 39 10 50 12 138 104 158 166 23 67 16 207 -10 221 -9 6 -20 19 -24
31 -7 17 -11 6 -21 -50z"/>
<path d="M3060 4037 c-147 -97 -511 -164 -755 -138 -59 6 -111 9 -115 6 -5 -3
-11 -1 -15 5 -4 6 -10 8 -15 5 -12 -7 -216 43 -252 61 -33 17 -41 18 -32 3 4
-8 0 -8 -15 0 -11 7 -21 16 -21 22 0 6 -4 8 -9 4 -5 -3 -12 -1 -16 5 -3 5 -11
10 -17 10 -18 0 32 -48 79 -76 332 -194 1040 -143 1204 87 25 35 23 35 -21 6z"/>
<path d="M3150 4005 c0 -3 2 -5 5 -5 3 0 5 2 5 5 0 3 -2 5 -5 5 -3 0 -5 -2 -5
-5z"/>
<path d="M1850 3995 c0 -3 2 -5 5 -5 3 0 5 2 5 5 0 3 -2 5 -5 5 -3 0 -5 -2 -5
-5z"/>
<path d="M2040 3594 c-19 -2 -84 -9 -145 -14 -505 -48 -774 -183 -577 -288
354 -189 1586 -211 2084 -38 81 28 87 27 68 -12 -7 -15 -17 -36 -22 -47 -15
-33 -68 -86 -78 -80 -6 3 -10 1 -10 -5 0 -6 -15 -24 -34 -41 -19 -16 -50 -53
-69 -82 l-34 -52 -7 -315 c-4 -173 -9 -364 -12 -424 -3 -89 0 -119 16 -167 21
-62 27 -116 10 -89 -12 19 -17 12 -24 -35 l-6 -40 15 30 14 30 1 -42 c0 -24
-4 -43 -10 -43 -5 0 -8 -6 -6 -12 3 -7 7 -25 10 -40 5 -23 12 -28 37 -28 21 0
28 4 23 13 -5 8 -2 7 10 -2 12 -10 14 -16 5 -21 -8 -6 -8 -10 2 -15 9 -6 8
-10 -7 -16 -16 -7 -16 -8 6 -8 22 -1 29 -9 45 -53 26 -74 35 -609 10 -634 -8
-9 -15 -31 -15 -50 0 -19 -2 -34 -4 -34 -2 0 -46 -11 -98 -25 -285 -75 -849
-116 -1060 -76 l-68 13 0 39 c0 32 -3 39 -20 39 -20 0 -20 7 -20 1010 0 667
-3 1010 -10 1010 -5 0 -10 7 -10 16 0 8 -17 41 -37 72 l-38 57 -6 -85 c-4 -47
-7 -588 -8 -1202 -1 -725 -5 -1118 -11 -1118 -6 0 -10 3 -10 8 0 4 -34 25 -75
47 -41 22 -75 43 -75 48 0 4 -10 7 -23 7 -46 0 -261 58 -273 74 -6 9 -29 22
-50 29 -35 13 -39 18 -42 52 -2 21 -12 50 -23 63 -18 24 -19 52 -19 1028 0
663 -3 1004 -10 1004 -5 0 -10 8 -10 18 0 10 -12 43 -26 73 -15 30 -27 60 -28
67 -1 7 -8 18 -14 24 -9 9 -12 -258 -12 -1178 0 -1322 -6 -1216 68 -1253 427
-215 1944 -193 2190 32 l22 20 0 1272 0 1271 -27 26 c-61 58 -247 111 -523
150 -137 19 -831 35 -950 22z m618 -239 c73 -9 88 -21 35 -30 -21 -4 -48 -10
-61 -16 -30 -12 -435 -12 -447 0 -6 5 -28 11 -49 13 -63 5 -54 24 16 35 67 11
402 9 506 -2z m842 -70 c0 -3 -2 -5 -5 -5 -3 0 -5 2 -5 5 0 3 2 5 5 5 3 0 5
-2 5 -5z m-1277 -12 c-13 -2 -33 -2 -45 0 -13 2 -3 4 22 4 25 0 35 -2 23 -4z
m1228 -255 c0 -13 0 -234 -1 -493 -2 -509 -1 -505 -55 -505 -45 0 -49 18 -41
208 4 97 13 314 20 482 6 168 15 311 20 318 13 22 56 15 57 -10z m-11 -1108
c40 -40 16 -100 -40 -100 -57 0 -84 72 -38 104 30 21 54 20 78 -4z m-140 -95
c0 -3 -2 -5 -5 -5 -3 0 -5 2 -5 5 0 3 2 5 5 5 3 0 5 -2 5 -5z m-30 -40 c0 -3
-2 -5 -5 -5 -3 0 -5 2 -5 5 0 3 2 5 5 5 3 0 5 -2 5 -5z"/>
<path d="M3410 3585 c0 -3 2 -5 5 -5 3 0 5 2 5 5 0 3 -2 5 -5 5 -3 0 -5 -2 -5
-5z"/>
</g>
</svg>
